<?xml version="1.0" encoding="UTF-8"?>
<svg width="149px" height="74px" viewBox="0 0 149 74" version="1.1" xmlns="http://www.w3.org/2000/svg" xmlns:xlink="http://www.w3.org/1999/xlink">
    <!-- Generator: Sketch 49 (51002) - http://www.bohemiancoding.com/sketch -->
    <title>Group</title>
    <desc>Created with Sketch.</desc>
    <defs></defs>
    <g id="Symbols" stroke="none" stroke-width="1" fill="none" fill-rule="evenodd">
        <g id="header/1440/black" transform="translate(0.000000, -67.000000)">
            <g id="header/1440" transform="translate(0.000000, 55.000000)">
                <g id="Group" transform="translate(0.000000, 12.000000)">
                    <g id="Group-7-Copy" transform="translate(0.621207, 0.000000)">
                        <path d="M0,32.5862069 L0,2.17241379 L6.40561081,2.17241379 C9.47662888,2.17241379 11.9017742,2.47444758 13.6811194,3.07852421 C15.592268,3.66946874 17.325456,4.67405937 18.8807356,6.09232625 C22.0308357,8.95512419 23.6058621,12.7174146 23.6058621,17.3793103 C23.6058621,22.0543382 21.964935,25.8363265 18.6830315,28.7253886 C17.0354897,30.1699197 15.3088917,31.1745103 13.5031858,31.7391906 C11.8161029,32.303871 9.42390794,32.5862069 6.3265292,32.5862069 L0,32.5862069 Z" id="Path" fill="#000000"></path>
                        <path d="M4.65905172,28.2413793 L6.72546309,28.2413793 C8.78532473,28.2413793 10.497477,28.0253186 11.8619714,27.5931907 C13.2264657,27.1348733 14.4597401,26.4081237 15.5618317,25.4129201 C17.8184954,23.357039 18.9468103,20.6791959 18.9468103,17.3793103 C18.9468103,14.0532352 17.8316154,11.3557502 15.6011919,9.28677433 C13.5938109,7.4404098 10.6352642,6.51724138 6.72546309,6.51724138 L4.65905172,6.51724138 L4.65905172,28.2413793 Z" id="Path" fill="#FFFFFF"></path>
                        <polygon id="Path" fill="#000000" points="45.9693103 6.4862873 33.7835934 6.4862873 33.7835934 13.7942648 45.6149599 13.7942648 45.6149599 18.1081383 33.7835934 18.1081383 33.7835934 28.2723334 45.9693103 28.2723334 45.9693103 32.5862069 29.1967241 32.5862069 29.1967241 2.17241379 45.9693103 2.17241379"></polygon>
                        <path d="M69.0951489,6.63889965 L65.3594365,8.83029833 C64.6610459,7.63024067 63.9956082,6.84760611 63.3631034,6.48237117 C62.7042444,6.06495981 61.8543289,5.85625726 60.8133315,5.85625726 C59.5351449,5.85625726 58.4743976,6.21496477 57.631058,6.93239055 C56.7877184,7.63677222 56.3660549,8.52375805 56.3660549,9.59337466 C56.3660549,11.0673585 57.4729215,12.2543543 59.6866881,13.1543975 L62.7306019,14.3870593 C65.2079121,15.3784113 67.0197474,16.5882339 68.1661622,18.0165633 C69.312577,19.4448928 69.8857759,21.1960377 69.8857759,23.2700504 C69.8857759,26.0484447 68.95021,28.3441728 67.0790502,30.1573034 C65.1947131,31.9834781 62.8557985,32.8965517 60.0622359,32.8965517 C57.4136223,32.8965517 55.226243,32.1204391 53.5000321,30.5681906 C51.8001757,29.0159421 50.7394284,26.8310873 50.3177586,24.0135606 L54.9824577,22.9961255 C55.1932926,24.7701238 55.5622481,25.9962513 56.0893354,26.6745448 C57.0380925,27.9789552 58.4216759,28.6311507 60.240127,28.6311507 C61.6764398,28.6311507 62.8689569,28.155048 63.8177139,27.2028284 C64.766471,26.2506087 65.2408425,25.0440471 65.2408425,23.5831073 C65.2408425,22.9961226 65.1584863,22.4580613 64.9937716,21.9689074 C64.8290568,21.4797535 64.5721056,21.0297386 64.2229103,20.6188493 C63.8737149,20.20796 63.4224032,19.8231647 62.8689616,19.4644518 C62.31552,19.1057389 61.6566707,18.7633363 60.8923942,18.4372336 L57.9473088,17.2241379 C53.7701421,15.4762279 51.6815901,12.9196216 51.6815901,9.55424254 C51.6815901,7.28456827 52.5578596,5.38667946 54.3104248,3.86051918 C56.06299,2.32131479 58.2437808,1.55172414 60.8528629,1.55172414 C64.3711704,1.55172414 67.1185716,3.24743235 69.0951489,6.63889965 Z" id="Path" fill="#000000"></path>
                        <polygon id="Path" fill="#000000" points="80.1356897 2.17241379 80.1356897 32.5862069 75.4766379 32.5862069 75.4766379 2.17241379"></polygon>
                        <path d="M102.937564,16.7572655 L115.544483,16.7572655 L115.544483,17.7643857 C115.544483,20.0551021 115.274431,22.0824874 114.73432,23.8466023 C114.207383,25.4790668 113.318189,27.0061882 112.066712,28.4280121 C109.234423,31.613951 105.631541,33.2068966 101.257959,33.2068966 C96.9897648,33.2068966 93.3341902,31.6666104 90.2911257,28.5859918 C87.2480612,25.4922082 85.7265517,21.7797235 85.7265517,17.4484264 C85.7265517,13.0249741 87.2744076,9.27299495 90.3701659,6.19237636 C93.4659242,3.09859274 97.2334713,1.55172414 101.67292,1.55172414 C104.057313,1.55172414 106.283591,2.03882319 108.351821,3.0130359 C110.327837,3.98724862 112.27089,5.56702932 114.181039,7.75242541 L110.900869,10.892271 C108.397915,7.56151668 105.34831,5.89616452 101.751961,5.89616452 C98.524468,5.89616452 95.8173668,7.00859343 93.6305759,9.23348463 C91.4437849,11.4188807 90.3504058,14.1571673 90.3504058,17.4484264 C90.3504058,20.8450059 91.5689307,23.6425342 94.006017,25.8410954 C96.285022,27.881676 98.7550049,28.9019511 101.41604,28.9019511 C103.681871,28.9019511 105.717137,28.1383904 107.521898,26.6112462 C109.326659,25.0709369 110.334412,23.2278594 110.545187,21.0819584 L102.937564,21.0819584 L102.937564,16.7572655 Z" id="Path" fill="#000000"></path>
                        <polygon id="Path" fill="#000000" points="121.135345 32.2968722 121.135345 0 143.267498 23.0719924 143.267498 2.05650187 147.847241 2.05650187 147.847241 34.137931 125.715089 11.1246958 125.715089 32.2968722"></polygon>
                    </g>
                    <polygon id="Path-Copy" fill="#000000" points="109.353869 41.649171 117.284409 61.9693509 125.570048 40.1724138 133.500588 61.9693509 141.92432 41.649171 146.915431 41.649171 133.303311 73.9803099 125.471409 52.4393441 117.304137 74 104.362759 41.649171"></polygon>
                    <polygon id="Path-Copy-2" fill="#000000" points="0 57.2413793 26.4012931 57.2413793 26.4012931 60.9655172 0 60.9655172"></polygon>
                    <polygon id="Path-Copy-3" fill="#000000" points="32.3242143 41.649171 40.2547541 61.9693509 48.5403927 40.1724138 56.4709324 61.9693509 64.894665 41.649171 69.8857759 41.649171 56.2736553 73.9803099 48.4417541 52.4393441 40.2744818 74 27.3331034 41.649171"></polygon>
                    <path d="M71.4387931,56.6486032 C71.4387931,52.3935689 73.0025715,48.7389931 76.1301753,45.684766 C79.2446929,42.6305389 82.9872923,41.1034483 87.3580858,41.1034483 C91.6765345,41.1034483 95.3798759,42.643591 98.4682211,45.7239225 C101.569652,48.8042541 103.120345,52.5045122 103.120345,56.8248078 C103.120345,61.1712078 101.563109,64.8584139 98.4485918,67.8865364 C95.3209881,70.9277113 91.5456736,72.4482759 87.1225353,72.4482759 C83.209759,72.4482759 79.6961648,71.097388 76.5816472,68.3955717 C73.1530607,65.4066059 71.4387931,61.4909889 71.4387931,56.6486032 Z M76.0978448,56.8521152 C76.0978448,60.2193556 77.2186125,62.9880802 79.4601815,65.1583718 C81.688718,67.3286635 84.262574,68.4137931 87.1818266,68.4137931 C90.3486944,68.4137931 93.0202917,67.3089339 95.1966988,65.0991824 C97.3731059,62.8631243 98.4612931,60.1404355 98.4612931,56.9310345 C98.4612931,53.6821736 97.3861381,50.9594849 95.2357958,48.7628866 C93.0984858,46.5531351 90.4529528,45.4482759 87.2991174,45.4482759 C84.1583144,45.4482759 81.5062653,46.5531351 79.3428906,48.7628866 C77.1795159,50.9463316 76.0978448,53.6427141 76.0978448,56.8521152 Z" id="DESIGN-—WOW-Copy-3" fill="#000000"></path>
                </g>
            </g>
        </g>
    </g>
</svg>